# xmcd
#
# Track frame offsets:
#	150
#	27970
#	48715
#	70492
#	93560
#	109247
#	124100
#	146420
#	165752
#
# Disc length: 2396 seconds
#
# Revision: 0
# Processed by: cddbd v1.4PL0 Copyright (c) Steve Scherf et al.
# Submitted via: audiograbber 1.82.01
#
DISCID=7a095a09
DTITLE=Victor Feldmann - The Artful Dodger
DYEAR=1977
DGENRE=Jazz - Post Bop
TTITLE0=Limehouse Blues
TTITLE1=Agitation
TTITLE2=A Walk on the Heath
TTITLE3=Haunted Ballroom
TTITLE4=Isn't She Lovely
TTITLE5=The Artful Dodger
TTITLE6=Smoke Gets in Your Eyes
TTITLE7=St. Thomas
TTITLE8=Haunted Ballroom
EXTD=
EXTT0=
EXTT1=
EXTT2=
EXTT3=
EXTT4=
EXTT5=
EXTT6=
EXTT7=
EXTT8=
PLAYORDER=
